# xmcd
#
# Track frame offsets: 
#        150
#        10312
#        32304
#        51924
#        76946
#        104540
#        119400
#        140719
#        156948
#        182101
#        197075
#
# Disc length: 2793 seconds
#
# Revision: 3
# Processed by: cddbd v1.5.2PL0 Copyright (c) Steve Scherf et al.
# Submitted via: ExactAudioCopyFreeDBPlugin 1.0
#
DISCID=920ae70b
DTITLE=Average White Band - Soul Searching
DYEAR=1976
DGENRE=Funk
TTITLE0=Overture
TTITLE1=Love Your Life
TTITLE2=I'm The One
TTITLE3=A Love Of Your Own
TTITLE4=Queen Of My Soul
TTITLE5=Soul Searching
TTITLE6=Goin' Home
TTITLE7=Everybody's Darling
TTITLE8=Would You Stay
TTITLE9=Sunny Days (Make Me Think Of You)
TTITLE10=Digging Deeper (Finale)
EXTD=
EXTT0=
EXTT1=
EXTT2=
EXTT3=
EXTT4=
EXTT5=
EXTT6=
EXTT7=
EXTT8=
EXTT9=
EXTT10=
PLAYORDER=
